<svg xmlns="http://www.w3.org/2000/svg" viewBox="0 0 64 64" role="img" aria-label="CPCREDO">
  <rect width="64" height="64" rx="16" fill="#07111f"/>
  <circle cx="32" cy="32" r="22" fill="#d4a429"/>
  <circle cx="32" cy="32" r="18.5" fill="none" stroke="#7a5a12" stroke-width="1.2"/>
  <circle cx="32" cy="32" r="14" fill="none" stroke="#f6d98a" stroke-width="1"/>
  <path d="M36.2 22.2h-3.1c-3.4 0-5.5 1.9-5.5 4.7 0 2.4 1.4 3.8 3.9 4.4l2.3.5c1.7.4 2.4 1 2.4 2.1 0 1.3-1.2 2.2-3.2 2.2h-3.4v2.6h3.5c3.6 0 5.8-2 5.8-5 0-2.5-1.5-3.9-4-4.5l-2.3-.5c-1.6-.3-2.2-1-2.2-2 0-1.2 1.1-2 3-2h3v-2.5z" fill="#07111f"/>
  <circle cx="32" cy="8" r="1.4" fill="#2ef2c8"/>
</svg>
